# xmcd
#
# Track frame offsets:
#	150
#	13325
#	28625
#	41700
#	53325
#	68512
#	81687
#	92704
#	108166
#	123391
#	141166
#	150779
#	166454
#	179704
#	197129
#	211604
#
# Disc length: 3012 seconds
#
# Revision: 1
# Processed by: cddbd v1.5.2PL0 Copyright (c) Steve Scherf et al.
# Submitted via: audiograbber 1.83.01
#
DISCID=d30bc210
DTITLE=Kelly Schoppa - Lay Back in Texas
DYEAR=1900
DGENRE=
TTITLE0=Love's at the Top
TTITLE1=Song About Texas
TTITLE2=Lay Back in Texas
TTITLE3=Amarillo By
TTITLE4=Drinking
TTITLE5=Let's Don't Give It
TTITLE6=Eyes as Big As
TTITLE7=Let's Just Leave It
TTITLE8=Her Loving
TTITLE9=How Can You
TTITLE10=Live Fast Love
TTITLE11=Oh What A
TTITLE12=Only Bridge
TTITLE13=Bits and Pieces
TTITLE14=Kentucky Blues
TTITLE15=Owner of The
EXTD=
EXTT0=
EXTT1=
EXTT2=
EXTT3=
EXTT4=
EXTT5=
EXTT6=
EXTT7=
EXTT8=
EXTT9=
EXTT10=
EXTT11=
EXTT12=
EXTT13=
EXTT14=
EXTT15=
PLAYORDER=
